<svg xmlns="http://www.w3.org/2000/svg" viewBox="0 0 512 512">
  <!-- AI OS favicon, variant A: the house white rounded square, with the wings
       carrying the AI OS core (MZ-G13) instead of flat charcoal. Geometry is
       lifted from mez.systems' favicon.ico — square at 100%, corner radius
       21%, wings 66.4% of the canvas — so it sits in the same family. -->
  <defs>
    <linearGradient id="g" x1="0" y1="0" x2="1" y2="1">
      <stop offset="0" stop-color="#69D9F4"/>
      <stop offset="0.55" stop-color="#5C8CD0"/>
      <stop offset="1" stop-color="#2D176E"/>
    </linearGradient>
  </defs>
  <rect width="512" height="512" rx="108" fill="#ffffff"/>
  <g transform="translate(86 135.5) scale(0.664)" fill="url(#g)"><path d="M45,0L105.89,0A45,45 0 0 1 146.58,25.78L239.69,222.87A45,45 0 0 1 244,242.09L244,316A45,45 0 0 1 199,361L45,361A45,45 0 0 1 0,316L0,45A45,45 0 0 1 45,0Z"/><path d="M466,0L405.11,0A45,45 0 0 0 364.42,25.78L271.31,222.87A45,45 0 0 0 267,242.09L267,316A45,45 0 0 0 312,361L466,361A45,45 0 0 0 511,316L511,45A45,45 0 0 0 466,0Z"/></g>
</svg>
